<?xml version="1.0" encoding="UTF-8" standalone="no"?>
<svg
   xmlns:dc="http://purl.org/dc/elements/1.1/"
   xmlns:cc="http://creativecommons.org/ns#"
   xmlns:rdf="http://www.w3.org/1999/02/22-rdf-syntax-ns#"
   xmlns:svg="http://www.w3.org/2000/svg"
   xmlns="http://www.w3.org/2000/svg"
   xmlns:sodipodi="http://sodipodi.sourceforge.net/DTD/sodipodi-0.dtd"
   xmlns:inkscape="http://www.inkscape.org/namespaces/inkscape"
   version="1.1"
   id="svg842"
   xml:space="preserve"
   width="16"
   height="16"
   viewBox="0 0 99 99"
   sodipodi:docname="reqnroll-icon-simple.svg"
   inkscape:version="1.0.2-2 (e86c870879, 2021-01-15)"
   inkscape:export-filename="C:\Users\gaspar\Dropbox\SpecSol\Reqnroll\Logo\icon\reqnroll-icon-512x512.png"
   inkscape:export-xdpi="496.48001"
   inkscape:export-ydpi="496.48001"><metadata
     id="metadata848"><rdf:RDF><cc:Work
         rdf:about=""><dc:format>image/svg+xml</dc:format><dc:type
           rdf:resource="http://purl.org/dc/dcmitype/StillImage" /><dc:title></dc:title></cc:Work></rdf:RDF></metadata><defs
     id="defs846" /><sodipodi:namedview
     pagecolor="#cacaca"
     bordercolor="#666666"
     borderopacity="1"
     objecttolerance="10"
     gridtolerance="10"
     guidetolerance="10"
     inkscape:pageopacity="0"
     inkscape:pageshadow="2"
     inkscape:window-width="1920"
     inkscape:window-height="1017"
     id="namedview844"
     showgrid="false"
     inkscape:zoom="4.6460551"
     inkscape:cx="33.439746"
     inkscape:cy="45.2183"
     inkscape:window-x="-8"
     inkscape:window-y="1072"
     inkscape:window-maximized="1"
     inkscape:current-layer="svg842"
     inkscape:document-rotation="0"
     showborder="true"
     fit-margin-top="5"
     fit-margin-left="5"
     fit-margin-right="5"
     fit-margin-bottom="5"
     lock-margins="true" /><g
     id="g850"
     inkscape:label="customcolor_icon_transparent_background"
     transform="matrix(1.3333333,0,0,1.3333333,5,5.0000019)"
     style="display:inline"><g
       id="g852"
       inkscape:label="icon-group"><path
         id="circle863"
         style="display:inline;fill:#ffffff;fill-opacity:1;stroke:none;stroke-width:0.413868;stroke-linecap:round;stop-color:#000000"
         inkscape:label="white_circle2"
         d="M 66.206413,32.139291 A 32.861518,32.861518 0 0 1 34.406599,66.029267 32.861518,32.861518 0 0 1 0.51662234,34.229453 32.861518,32.861518 0 0 1 32.316437,0.3394769 32.861518,32.861518 0 0 1 66.206413,32.139291 Z" /><path
         d="m 3.719,33.375 c 0,-16.379 13.277,-29.656 29.656,-29.656 16.379,0 29.656,13.277 29.656,29.656 0,16.379 -13.277,29.656 -29.656,29.656 C 16.996,63.031 3.719,49.754 3.719,33.375 Z M 46.004,20.477 V 9.977 L 43.785,9.809 c -4.097,0 -7.91,0.996 -11.437,2.984 -3.645,2.051 -6.504,4.797 -8.578,8.238 -2.079,3.446 -3.118,7.184 -3.118,11.227 l 0.086,24.496 h 9.989 L 30.555,33.793 c 0,-2.504 0.625,-4.75 1.879,-6.742 1.195,-2.051 2.828,-3.688 4.906,-4.91 2.078,-1.223 4.312,-1.836 6.699,-1.836 0.285,0 0.941,0.058 1.965,0.172 z m 20.738,13.554 -0.008,0.336 -0.007,0.332 -0.016,0.332 -0.02,0.336 -0.019,0.332 -0.024,0.332 -0.027,0.332 -0.031,0.332 -0.07,0.664 -0.086,0.664 -0.047,0.329 -0.051,0.332 -0.055,0.328 -0.117,0.656 -0.133,0.656 -0.07,0.324 -0.074,0.329 -0.078,0.324 -0.164,0.648 -0.18,0.641 -0.094,0.32 -0.098,0.32 -0.101,0.321 -0.102,0.316 -0.218,0.633 -0.114,0.312 -0.234,0.626 -0.121,0.308 -0.125,0.309 -0.129,0.308 -0.078,0.18 -0.133,0.301 -0.133,0.304 -0.14,0.305 -0.141,0.301 -0.149,0.301 -0.144,0.3 -0.152,0.297 -0.157,0.297 -0.156,0.293 -0.32,0.586 -0.336,0.578 -0.172,0.285 -0.176,0.286 -0.176,0.281 -0.179,0.281 -0.184,0.281 -0.187,0.278 -0.188,0.273 -0.191,0.274 -0.196,0.273 -0.199,0.266 -0.199,0.269 -0.203,0.266 -0.203,0.261 -0.207,0.262 -0.211,0.262 -0.215,0.254 -0.215,0.258 -0.437,0.5 -0.223,0.25 -0.227,0.246 -0.226,0.242 -0.231,0.242 -0.468,0.477 -0.137,0.136 -0.235,0.231 -0.484,0.461 -0.246,0.226 -0.246,0.223 -0.25,0.223 -0.25,0.218 -0.254,0.215 -0.258,0.215 -0.258,0.211 -0.261,0.211 -0.262,0.207 -0.262,0.203 -0.269,0.199 -0.266,0.2 -0.273,0.195 -0.27,0.195 -0.277,0.188 -0.274,0.187 -0.281,0.188 -0.277,0.179 -0.282,0.18 -0.285,0.176 -0.285,0.172 -0.289,0.172 -0.289,0.168 -0.289,0.164 -0.293,0.16 -0.293,0.156 -0.297,0.156 -0.297,0.153 -0.297,0.148 -0.3,0.149 -0.301,0.144 -0.305,0.141 -0.301,0.136 -0.308,0.133 -0.305,0.133 -0.305,0.125 -0.617,0.25 -0.625,0.234 -0.312,0.114 -0.633,0.218 -0.317,0.102 -0.32,0.102 -0.316,0.097 -0.321,0.094 -0.324,0.09 -0.32,0.09 -0.649,0.164 -0.324,0.078 -0.324,0.074 -0.328,0.07 -0.324,0.067 -0.328,0.066 -0.329,0.059 -0.332,0.058 -0.328,0.055 -0.328,0.051 -0.664,0.094 -0.328,0.039 -0.332,0.039 -0.332,0.035 -0.332,0.031 -0.336,0.027 -0.332,0.024 -0.664,0.039 -0.336,0.016 -0.664,0.015 -0.336,0.008 h -0.66 L 32.719,66.742 32.383,66.734 32.051,66.727 31.719,66.711 31.383,66.691 31.051,66.672 30.719,66.648 30.387,66.621 30.055,66.59 29.391,66.52 28.727,66.434 28.398,66.387 28.066,66.336 27.738,66.281 27.082,66.164 26.426,66.031 26.102,65.961 25.773,65.887 25.449,65.809 24.801,65.645 24.16,65.465 23.84,65.371 23.52,65.273 23.199,65.172 22.883,65.07 22.566,64.961 22.254,64.852 21.938,64.738 21.312,64.504 21.004,64.383 20.695,64.258 20.387,64.129 20.211,64.051 19.602,63.785 19.297,63.645 18.996,63.504 18.395,63.207 18.098,63.059 17.801,62.902 17.508,62.746 16.922,62.426 16.344,62.09 16.059,61.918 15.773,61.742 15.492,61.566 15.211,61.387 14.93,61.203 14.652,61.016 14.379,60.828 14.105,60.637 13.836,60.441 13.297,60.043 13.031,59.84 12.77,59.637 12.508,59.43 12.25,59.219 11.992,59.004 11.738,58.789 11.484,58.57 11.234,58.352 10.984,58.129 10.738,57.902 10.496,57.676 10.254,57.445 9.777,56.977 9.641,56.84 9.41,56.605 8.949,56.121 8.723,55.875 8.5,55.629 8.277,55.379 8.059,55.129 7.844,54.875 7.629,54.617 7.418,54.359 7.207,54.098 7,53.836 6.797,53.574 6.598,53.305 6.398,53.039 6.203,52.766 6.008,52.496 5.82,52.219 5.633,51.945 5.449,51.664 5.266,51.387 5.086,51.105 4.91,50.82 4.738,50.535 4.566,50.246 4.402,49.957 4.234,49.668 4.074,49.375 3.918,49.082 3.762,48.785 3.609,48.488 3.461,48.191 3.312,47.891 3.168,47.59 3.027,47.285 2.891,46.984 2.758,46.676 2.625,46.371 2.5,46.066 2.25,45.449 2.016,44.824 1.902,44.512 1.684,43.879 1.582,43.562 1.48,43.242 1.383,42.926 1.289,42.605 1.199,42.281 1.109,41.961 0.945,41.312 0.867,40.988 0.793,40.664 0.723,40.336 0.656,40.012 0.59,39.684 0.531,39.355 0.473,39.023 0.418,38.695 0.367,38.367 0.273,37.703 0.234,37.375 0.195,37.043 0.16,36.711 0.133,36.379 0.102,36.043 0.078,35.711 0.039,35.047 0.027,34.711 0.016,34.379 0.008,34.047 0,33.711 v -0.66 l 0.008,-0.332 0.008,-0.336 0.007,-0.332 0.016,-0.332 0.02,-0.336 0.019,-0.332 0.024,-0.332 0.027,-0.332 0.031,-0.332 0.07,-0.664 0.086,-0.664 0.047,-0.329 0.051,-0.332 0.055,-0.328 0.058,-0.328 0.125,-0.656 0.067,-0.328 0.07,-0.324 0.074,-0.329 0.078,-0.324 0.082,-0.324 0.086,-0.324 0.086,-0.321 0.09,-0.32 0.094,-0.32 0.098,-0.32 0.101,-0.321 0.102,-0.316 0.109,-0.317 0.109,-0.312 0.114,-0.316 0.234,-0.626 0.121,-0.308 0.129,-0.309 0.125,-0.308 0.078,-0.18 0.133,-0.301 0.273,-0.609 0.29,-0.602 0.148,-0.3 0.148,-0.297 0.157,-0.297 0.156,-0.293 0.16,-0.293 L 4.328,16.922 4.492,16.633 4.66,16.344 4.832,16.059 5.008,15.773 5.184,15.492 5.363,15.211 5.547,14.93 5.734,14.652 5.922,14.379 6.113,14.105 6.309,13.836 6.707,13.297 6.91,13.031 7.113,12.77 7.32,12.508 7.531,12.25 7.746,11.992 7.961,11.738 8.18,11.484 8.398,11.234 8.621,10.984 8.848,10.738 9.074,10.496 9.305,10.254 9.773,9.777 9.91,9.641 10.145,9.41 10.629,8.949 10.875,8.723 11.121,8.5 11.371,8.277 11.621,8.059 11.875,7.844 12.133,7.629 12.391,7.418 12.652,7.207 12.914,7 13.176,6.797 13.445,6.598 13.711,6.398 13.984,6.203 14.254,6.008 14.531,5.82 14.805,5.633 15.086,5.449 15.363,5.266 15.648,5.086 15.93,4.91 16.215,4.738 16.504,4.566 16.793,4.402 17.082,4.234 17.375,4.074 17.668,3.918 17.965,3.762 18.262,3.609 18.559,3.461 18.859,3.312 19.16,3.168 19.465,3.027 19.77,2.891 20.379,2.625 20.684,2.5 21.301,2.25 21.926,2.016 22.238,1.902 22.871,1.684 23.188,1.582 23.508,1.48 23.824,1.383 24.145,1.289 24.469,1.199 24.789,1.109 25.438,0.945 25.762,0.867 26.086,0.793 26.414,0.723 26.742,0.656 27.066,0.59 27.395,0.531 27.727,0.473 28.055,0.418 28.383,0.367 29.047,0.273 29.379,0.234 29.707,0.195 30.039,0.16 30.375,0.133 30.707,0.102 31.039,0.078 31.703,0.039 32.039,0.027 32.371,0.016 32.703,0.008 33.039,0 h 0.66 l 0.332,0.008 0.336,0.008 0.332,0.007 0.332,0.016 0.336,0.02 0.332,0.019 0.332,0.024 0.332,0.027 0.332,0.031 0.664,0.07 0.664,0.086 0.329,0.047 0.332,0.051 0.328,0.055 0.328,0.058 0.656,0.125 0.328,0.067 0.324,0.07 0.329,0.074 0.324,0.078 0.324,0.082 0.324,0.086 0.321,0.086 0.32,0.09 0.32,0.094 0.32,0.098 0.321,0.101 0.316,0.102 0.633,0.218 0.312,0.114 0.626,0.234 0.308,0.121 0.309,0.129 0.308,0.125 0.18,0.078 0.301,0.133 0.609,0.273 0.602,0.29 0.3,0.148 0.297,0.148 0.297,0.157 0.293,0.156 0.293,0.16 0.293,0.164 0.289,0.164 0.289,0.168 0.285,0.172 0.286,0.176 0.281,0.176 0.281,0.179 0.281,0.184 0.278,0.187 0.273,0.188 0.274,0.191 0.273,0.196 0.27,0.199 0.265,0.199 0.266,0.203 0.261,0.203 0.262,0.207 0.262,0.211 0.254,0.215 0.258,0.215 0.5,0.437 0.25,0.223 0.246,0.227 0.242,0.226 0.242,0.231 0.477,0.468 0.136,0.137 0.231,0.235 0.461,0.484 0.226,0.246 0.223,0.246 0.223,0.25 0.218,0.25 0.215,0.254 0.215,0.258 0.211,0.258 0.211,0.261 0.207,0.262 0.203,0.262 0.199,0.269 0.2,0.266 0.195,0.273 0.195,0.27 0.188,0.277 0.187,0.274 0.188,0.281 0.179,0.277 0.18,0.285 0.176,0.282 0.172,0.285 0.172,0.289 0.168,0.289 0.164,0.289 0.16,0.293 0.156,0.293 0.156,0.297 0.153,0.297 0.148,0.297 0.149,0.3 0.144,0.301 0.141,0.305 0.136,0.305 0.266,0.609 0.125,0.305 0.25,0.617 0.234,0.625 0.114,0.312 0.218,0.633 0.102,0.317 0.102,0.32 0.097,0.316 0.094,0.321 0.09,0.324 0.09,0.32 0.164,0.649 0.078,0.324 0.074,0.324 0.07,0.328 0.067,0.328 0.066,0.324 0.059,0.329 0.058,0.332 0.055,0.328 0.051,0.328 0.094,0.664 0.039,0.332 0.039,0.328 0.035,0.332 0.031,0.336 0.027,0.332 0.024,0.332 0.039,0.664 0.016,0.336 0.015,0.664 0.008,0.336 v 0.66 z M 65.184,33.059 65.18,32.742 65.172,32.422 65.148,31.789 65.129,31.469 65.109,31.152 65.086,30.836 65.031,30.203 65,29.887 64.883,28.938 64.836,28.625 64.789,28.309 64.625,27.371 64.562,27.059 64.496,26.746 64.43,26.438 64.359,26.125 64.285,25.816 64.129,25.199 64.047,24.895 63.957,24.586 63.777,23.977 63.68,23.676 63.582,23.371 63.48,23.07 63.375,22.77 63.266,22.473 63.156,22.172 63.043,21.875 62.926,21.582 62.805,21.285 62.684,20.996 62.559,20.703 62.434,20.414 62.301,20.121 62.168,19.832 62.031,19.547 61.75,18.977 61.602,18.691 61.457,18.41 61.305,18.133 61.152,17.852 60.996,17.578 60.836,17.301 60.508,16.754 60.172,16.215 59.996,15.949 59.824,15.684 59.465,15.16 59.281,14.902 59.094,14.645 58.902,14.387 58.711,14.133 58.52,13.883 58.121,13.383 57.922,13.137 57.719,12.895 57.512,12.652 57.301,12.41 57.09,12.172 56.66,11.703 56.223,11.242 56,11.012 55.871,10.887 55.645,10.66 55.418,10.438 55.184,10.219 54.953,10.004 54.719,9.789 54.48,9.574 54.242,9.363 54.004,9.156 53.758,8.949 53.516,8.746 53.27,8.547 53.02,8.348 52.77,8.152 52.262,7.77 52.004,7.582 51.746,7.398 51.484,7.215 50.961,6.855 50.695,6.684 50.156,6.34 49.887,6.176 49.613,6.012 49.34,5.852 49.062,5.691 48.508,5.387 48.227,5.234 47.945,5.09 47.66,4.945 47.09,4.664 46.512,4.398 46.219,4.266 45.926,4.141 45.762,4.066 45.469,3.945 45.172,3.824 44.875,3.711 44.578,3.594 44.281,3.484 43.98,3.375 43.684,3.273 43.379,3.168 43.078,3.07 42.773,2.977 42.473,2.883 42.164,2.793 41.555,2.621 40.938,2.465 40.629,2.391 40.316,2.32 40.008,2.254 39.695,2.188 39.07,2.07 38.758,2.016 38.445,1.965 38.129,1.914 37.816,1.871 37.5,1.828 37.184,1.789 36.551,1.719 35.918,1.664 35.602,1.641 35.281,1.621 34.648,1.59 34.328,1.578 34.012,1.57 33.691,1.566 H 33.062 L 32.742,1.57 32.426,1.578 32.105,1.59 31.789,1.605 31.469,1.621 31.152,1.641 30.836,1.664 30.203,1.719 29.57,1.789 28.938,1.867 28.625,1.914 28.309,1.961 27.684,2.07 27.059,2.188 26.746,2.254 26.438,2.32 26.125,2.391 25.816,2.465 25.199,2.621 24.895,2.707 24.586,2.793 23.977,2.973 23.676,3.07 23.371,3.168 23.07,3.27 22.77,3.375 22.473,3.484 22.172,3.594 21.875,3.707 21.582,3.824 21.285,3.945 20.996,4.066 20.703,4.191 20.414,4.32 20.121,4.449 19.836,4.582 19.547,4.719 19.262,4.859 18.691,5.148 18.41,5.297 18.133,5.445 17.852,5.602 17.578,5.758 17.301,5.914 16.754,6.242 16.215,6.578 15.684,6.93 15.422,7.105 15.16,7.289 l -0.515,0.367 -0.258,0.192 -0.254,0.191 -0.25,0.191 -0.5,0.399 -0.246,0.199 -0.242,0.207 -0.243,0.203 -0.242,0.211 -0.238,0.211 -0.469,0.43 -0.461,0.437 -0.226,0.227 -0.129,0.125 -0.227,0.226 -0.219,0.231 -0.222,0.23 -0.215,0.231 L 9.789,12.031 9.574,12.27 9.363,12.508 8.949,12.992 8.746,13.234 8.547,13.484 8.348,13.73 8.152,13.98 7.77,14.488 7.582,14.746 7.398,15.004 7.215,15.266 6.855,15.789 6.684,16.059 6.512,16.324 6.176,16.863 6.012,17.137 5.852,17.41 5.691,17.688 5.387,18.242 5.234,18.523 5.09,18.809 4.945,19.09 4.664,19.66 4.398,20.238 4.266,20.531 4.141,20.824 4.066,20.988 3.945,21.281 3.824,21.578 3.711,21.875 3.594,22.172 3.484,22.469 3.375,22.77 3.273,23.07 3.168,23.371 3.07,23.672 2.883,24.281 2.793,24.586 2.707,24.891 2.621,25.199 2.543,25.504 2.465,25.812 2.391,26.121 2.32,26.434 2.254,26.742 2.188,27.055 2.07,27.68 2.016,27.992 1.965,28.305 1.914,28.621 1.871,28.934 1.828,29.25 1.789,29.566 1.719,30.199 1.664,30.832 1.641,31.148 1.621,31.469 1.59,32.102 1.578,32.422 1.57,32.738 1.566,33.059 v 0.632 l 0.004,0.317 0.008,0.32 0.012,0.317 0.015,0.316 0.016,0.32 0.02,0.317 0.023,0.316 0.027,0.316 0.028,0.321 0.035,0.316 0.035,0.313 0.078,0.632 0.047,0.317 0.047,0.312 0.109,0.625 0.118,0.625 0.132,0.625 0.071,0.309 0.074,0.309 0.156,0.617 0.086,0.304 0.086,0.309 0.18,0.609 0.097,0.301 0.098,0.305 0.102,0.301 0.105,0.3 0.109,0.297 0.11,0.301 0.113,0.297 0.117,0.293 0.121,0.297 0.121,0.289 0.125,0.293 0.129,0.289 0.129,0.293 0.133,0.289 0.137,0.285 0.14,0.285 0.289,0.571 0.149,0.281 0.148,0.277 0.157,0.281 0.156,0.278 0.156,0.273 0.328,0.547 0.336,0.539 0.352,0.531 0.175,0.262 0.368,0.524 0.183,0.257 0.574,0.762 0.2,0.25 0.398,0.492 0.207,0.242 0.203,0.243 0.211,0.242 0.211,0.238 0.43,0.469 0.437,0.461 0.227,0.23 0.351,0.352 0.231,0.222 0.23,0.219 0.231,0.215 0.234,0.219 0.477,0.422 0.484,0.414 0.242,0.203 0.25,0.199 0.246,0.199 0.25,0.196 0.508,0.382 0.258,0.188 0.258,0.184 0.262,0.183 0.261,0.18 0.266,0.18 0.531,0.343 0.27,0.172 0.269,0.164 0.274,0.164 0.273,0.16 0.278,0.161 0.277,0.152 0.281,0.156 0.277,0.149 0.286,0.144 0.281,0.145 0.285,0.14 0.289,0.141 0.285,0.137 0.289,0.132 0.586,0.258 0.164,0.071 0.297,0.121 0.293,0.121 0.297,0.117 0.297,0.113 0.297,0.11 0.301,0.109 0.3,0.105 0.301,0.102 0.301,0.098 0.609,0.187 0.305,0.09 0.305,0.086 0.308,0.086 0.305,0.078 0.308,0.078 0.309,0.074 0.313,0.071 0.308,0.066 0.313,0.066 0.625,0.118 0.625,0.109 0.316,0.047 0.313,0.047 0.632,0.078 0.633,0.07 0.633,0.055 0.316,0.023 0.321,0.02 0.633,0.031 0.32,0.012 0.316,0.008 0.321,0.004 h 0.632 l 0.317,-0.004 0.32,-0.008 0.317,-0.012 0.316,-0.015 0.32,-0.016 0.317,-0.02 0.316,-0.023 0.316,-0.027 0.321,-0.028 0.316,-0.031 0.313,-0.039 0.632,-0.078 0.317,-0.047 0.312,-0.047 0.938,-0.164 0.312,-0.063 0.625,-0.132 0.309,-0.071 0.309,-0.074 0.617,-0.156 0.304,-0.082 0.309,-0.09 0.609,-0.18 0.301,-0.097 0.305,-0.098 0.301,-0.102 0.3,-0.105 0.297,-0.109 0.301,-0.11 0.297,-0.113 0.297,-0.117 0.293,-0.121 0.289,-0.121 0.586,-0.25 0.578,-0.266 0.285,-0.137 0.57,-0.281 0.286,-0.148 0.281,-0.149 0.277,-0.148 0.281,-0.153 0.278,-0.156 0.273,-0.16 0.547,-0.328 0.539,-0.336 0.266,-0.176 0.265,-0.172 0.524,-0.359 0.262,-0.188 0.257,-0.183 0.762,-0.574 0.25,-0.2 0.492,-0.398 0.246,-0.203 0.239,-0.207 0.242,-0.211 0.238,-0.211 0.469,-0.43 0.461,-0.437 0.23,-0.227 0.352,-0.351 0.222,-0.231 0.438,-0.461 0.215,-0.234 0.422,-0.477 0.207,-0.238 0.207,-0.246 0.203,-0.242 0.199,-0.246 0.199,-0.25 0.196,-0.25 0.382,-0.508 0.188,-0.258 0.184,-0.258 0.183,-0.262 0.36,-0.523 0.171,-0.266 0.344,-0.539 0.164,-0.269 0.164,-0.274 0.16,-0.273 0.161,-0.278 0.152,-0.277 0.156,-0.277 0.149,-0.281 0.144,-0.282 0.145,-0.285 0.281,-0.57 0.137,-0.289 0.132,-0.289 0.258,-0.586 0.071,-0.164 0.121,-0.293 0.121,-0.297 0.117,-0.297 0.113,-0.297 0.11,-0.297 0.109,-0.301 0.105,-0.296 0.102,-0.305 0.098,-0.301 0.097,-0.305 0.09,-0.3 0.09,-0.309 0.172,-0.609 0.156,-0.617 0.074,-0.309 0.071,-0.313 0.066,-0.308 0.066,-0.313 0.118,-0.625 0.109,-0.625 0.047,-0.316 0.047,-0.313 0.078,-0.632 0.07,-0.633 0.055,-0.633 0.023,-0.316 0.02,-0.321 0.031,-0.633 0.012,-0.32 0.008,-0.316 0.004,-0.321 z"
         style="display:inline;fill:#c4d600;fill-opacity:1;fill-rule:nonzero;stroke:none"
         id="path855"
         inkscape:label="icon" /></g></g></svg>
