<svg width="16" height="16" viewBox="0 0 16 16" fill="none" xmlns="http://www.w3.org/2000/svg">
<path d="M5.00124 14.6635C4.58799 14.6635 4.1814 14.4735 3.92145 14.1137C3.4882 13.5172 3.6215 12.6842 4.21473 12.251L11.5467 6.91972C12.1432 6.48655 12.9764 6.61983 13.4097 7.21294C13.8429 7.80939 13.7096 8.64241 13.1164 9.07558L5.78443 14.4069C5.54781 14.5802 5.27452 14.6635 5.00124 14.6635Z" fill="#574897"/>
<path d="M12.339 9.33249C12.0657 9.33249 11.7924 9.24919 11.5558 9.07592L4.22383 3.74462C3.62728 3.31145 3.4973 2.47843 3.93056 1.88199C4.36381 1.28555 5.19699 1.15559 5.79354 1.58876L13.1255 6.92007C13.722 7.35324 13.852 8.18626 13.4188 8.7827C13.2949 8.95297 13.1324 9.09147 12.9448 9.18705C12.7571 9.28257 12.5495 9.33244 12.339 9.33249Z" fill="#45BAD9"/>
<path d="M5.0058 14.6696C4.26927 14.6696 3.67271 14.0732 3.67271 13.3368V2.67414C3.67271 1.93775 4.26927 1.34131 5.0058 1.34131C5.74233 1.34131 6.33888 1.93775 6.33888 2.67414V13.3368C6.33888 14.0732 5.74233 14.6696 5.0058 14.6696Z" fill="#004D96"/>
<path d="M11.55 9.07886C11.55 9.07886 11.55 9.07553 11.55 9.07886L10.0669 7.99927L4.21805 12.251C4.07635 12.354 3.95634 12.4839 3.86489 12.6332C3.77344 12.7826 3.71235 12.9485 3.68511 13.1215C3.65787 13.2945 3.66502 13.4712 3.70614 13.6414C3.74726 13.8117 3.82156 13.9721 3.92477 14.1136C4.02713 14.2556 4.15659 14.3759 4.30569 14.4676C4.45479 14.5592 4.62058 14.6204 4.79348 14.6477C4.96638 14.675 5.14296 14.6677 5.31304 14.6264C5.48313 14.5851 5.64334 14.5104 5.78442 14.4069L12.3332 9.64865L11.55 9.07886Z" fill="#574897"/>
</svg>
