<svg width="16" height="16" version="1.1" viewBox="0 0 16 16" xmlns="http://www.w3.org/2000/svg">
 <g transform="translate(-63.143 -62.493)">
  <g transform="matrix(.26458 0 0 .26458 -235.06 185.84)">
   <path style="fill: #6469af" d="m1181.5-437.49v-0.11c0-0.56 0.09-1.12 0.09-1.7a25 25 0 1 0-29.45 24.58v7c14.43-2.16 27.24-13.19 29.14-27.85 0.09-0.61 0.17-1.22 0.21-1.84 0-0.05 0.01-0.06 0.01-0.08z"/>
   <g transform="translate(841.43 -464.29)">
    <path style="fill: #7b7fba" transform="translate(-251.14,-243.91)" d="m576.23 269.8a7 7 0 0 0-4 1.14 7 7 0 0 0 4.14 4.72 5.36 5.36 0 0 0 2.15 0.48c2.74 0.15 4.08-3.24 1.95-4.77a11.18 11.18 0 0 0-1.81-1 6.54 6.54 0 0 0-2.43-0.57z"/>
   </g>
   <g transform="translate(841.43 -464.29)" data-name="rect4005-5">
    <path style="fill: #8f91c3" transform="translate(-251.14,-243.91)" d="m568.8 274.76a6.16 6.16 0 0 0-0.62 6.1 5.87 5.87 0 0 0 1.05 1.66c1.67 1.83 5.2 0.48 5-1.81a4.73 4.73 0 0 0-0.48-2 7 7 0 0 0-4.95-3.95z"/>
    <path style="fill: #a6a8cf" transform="translate(-251.14,-243.91)" d="m563.13 274.61a6.72 6.72 0 0 0-4.87 4 4.65 4.65 0 0 0-0.47 1.95c-0.15 2.6 3.38 4 4.91 2a10.78 10.78 0 0 0 1-1.81 6.25 6.25 0 0 0-0.57-6.14z"/>
    <path style="fill: #babcdc" transform="translate(-251.14,-243.91)" d="m555.41 269.94a6.54 6.54 0 0 0-2.48 0.53 5.19 5.19 0 0 0-1.81 1.09 2.7 2.7 0 0 0 2.09 4.72 5 5 0 0 0 2.15-0.47 6.44 6.44 0 0 0 3.95-4.72 6.79 6.79 0 0 0-3.9-1.15z"/>
    <path style="fill: #d1d3e5" transform="translate(-251.14,-243.91)" d="m552.74 260.56a2.63 2.63 0 0 0-1.48 4.72 11.6 11.6 0 0 0 1.81 1.09 6.88 6.88 0 0 0 6.43-0.62 7.06 7.06 0 0 0-4.14-4.72 5.52 5.52 0 0 0-2.15-0.47 2.46 2.46 0 0 0-0.47 0z"/>
    <path style="fill: #e8e8f4" transform="translate(-251.14,-243.91)" d="m560.51 253.22a2.91 2.91 0 0 0-2.72 2.76 4.89 4.89 0 0 0 0.48 2 6.94 6.94 0 0 0 5 4 6.19 6.19 0 0 0 0.63-6.1 6.34 6.34 0 0 0-1.06-1.67 2.67 2.67 0 0 0-2.33-0.99z"/>
    <path style="fill: #e8e8f4" transform="translate(-251.14,-243.91)" d="m560.51 253.22a2.91 2.91 0 0 0-2.72 2.76 4.89 4.89 0 0 0 0.48 2 6.94 6.94 0 0 0 5 4 6.19 6.19 0 0 0 0.63-6.1 6.34 6.34 0 0 0-1.06-1.67 2.67 2.67 0 0 0-2.33-0.99z"/>
    <path style="fill: #e8e8f4" transform="translate(-251.14,-243.91)" d="m560.51 253.22a2.91 2.91 0 0 0-2.72 2.76 4.89 4.89 0 0 0 0.48 2 6.94 6.94 0 0 0 5 4 6.19 6.19 0 0 0 0.63-6.1 6.34 6.34 0 0 0-1.06-1.67 2.67 2.67 0 0 0-2.33-0.99z"/>
    <path style="fill: #e8e8f4" transform="translate(-251.14,-243.91)" d="m560.51 253.22a2.91 2.91 0 0 0-2.72 2.76 4.89 4.89 0 0 0 0.48 2 6.94 6.94 0 0 0 5 4 6.19 6.19 0 0 0 0.63-6.1 6.34 6.34 0 0 0-1.06-1.67 2.67 2.67 0 0 0-2.33-0.99z"/>
    <path style="fill: #fff" transform="translate(-251.14,-243.91)" d="m572.49 253.07a2.74 2.74 0 0 0-2.39 1 11.18 11.18 0 0 0-1 1.81 5.85 5.85 0 0 0 0.76 6.1 6.71 6.71 0 0 0 4.86-4 4.73 4.73 0 0 0 0.48-2 2.86 2.86 0 0 0-2.71-2.91z"/>
    <path style="fill: #fff" transform="translate(-251.14,-243.91)" d="m572.49 253.07a2.74 2.74 0 0 0-2.39 1 11.18 11.18 0 0 0-1 1.81 5.85 5.85 0 0 0 0.76 6.1 6.71 6.71 0 0 0 4.86-4 4.73 4.73 0 0 0 0.48-2 2.86 2.86 0 0 0-2.71-2.91z"/>
    <path style="fill: #fff" transform="translate(-251.14,-243.91)" d="m572.49 253.07a2.74 2.74 0 0 0-2.39 1 11.18 11.18 0 0 0-1 1.81 5.85 5.85 0 0 0 0.76 6.1 6.71 6.71 0 0 0 4.86-4 4.73 4.73 0 0 0 0.48-2 2.86 2.86 0 0 0-2.71-2.91z"/>
    <path style="fill: #fff" transform="translate(-251.14,-243.91)" d="m572.49 253.07a2.74 2.74 0 0 0-2.39 1 11.18 11.18 0 0 0-1 1.81 5.85 5.85 0 0 0 0.76 6.1 6.71 6.71 0 0 0 4.86-4 4.73 4.73 0 0 0 0.48-2 2.86 2.86 0 0 0-2.71-2.91z"/>
   </g>
  </g>
 </g>
</svg>
